<?xml version="1.0" encoding="UTF-8"?>
<svg fill="none" viewBox="0 0 163 24" xmlns="http://www.w3.org/2000/svg">
<g clip-path="url(#b)">
<path d="m96.795 15.498c1.9212 0 3.4788-1.5587 3.4788-3.4815 0-1.9227-1.5576-3.4815-3.4788-3.4815-1.9213 0-3.4788 1.5588-3.4788 3.4815 0 1.9228 1.5575 3.4815 3.4788 3.4815z" fill="#CDDC36"/>
<path d="m84.788 11.146 5.4856-5.49h-3.7125c-1.0201 1.6623-1.6281 3.5446-1.7731 5.49z" fill="#DAE233"/>
<path d="m95.959 0c-2.014 0.12732-3.9609 0.77318-5.6521 1.875v3.783l5.6521-5.658z" fill="#DAE233"/>
<path d="m108.77 11.146-5.486-5.49h3.713c1.035 1.6556 1.644 3.5416 1.773 5.49z" fill="#DAE233"/>
<path d="m97.632 0c2.0139 0.12738 3.9604 0.77325 5.6524 1.875v3.783l-5.6524-5.658z" fill="#DAE233"/>
<path d="m90.307 12.786h-5.4857c0.1293 1.9484 0.7384 3.8345 1.7731 5.49h3.7126v-5.49z" fill="#DAE233"/>
<path d="m103.32 12.786h5.486c-0.13 1.9484-0.739 3.8344-1.774 5.49h-3.712v-5.49z" fill="#DAE233"/>
<path d="m95.959 5.5905-5.5456 5.55h-5.625l11.171-11.146v5.5965z" fill="#46B746"/>
<path d="m97.631 23.966c2.0248-0.0721 3.9917-0.6972 5.6867-1.8075v-9.372l-5.6867 5.691v5.4885z" fill="#46B746"/>
<path d="m95.926 18.444-5.6191-5.6235v9.372c1.6965 1.0808 3.6437 1.7036 5.6521 1.8075v-5.55l-0.033-6e-3z" fill="#46B746"/>
<path d="m97.631 5.5905 5.5457 5.55h5.619l-11.165-11.14v5.5905z" fill="#46B746"/>
<path d="m17.689 22.622c-0.1836 0.0166-0.3673-0.031-0.5197-0.1346-0.1525-0.1036-0.2644-0.257-0.3167-0.4339l-2.548-6.9285h-10.123l-2.4746 6.9285c-0.05999 0.1721-0.17369 0.3202-0.3243 0.4226s-0.33013 0.1535-0.51203 0.1459c-0.14623-0.0011-0.28989-0.0386-0.41811-0.109-0.12822-0.0703-0.237-0.1714-0.3166-0.2942-0.079602-0.1228-0.12754-0.2634-0.13952-0.4092-0.011982-0.1459 0.012367-0.2924 0.070865-0.4266l6.5558-18.109c0.136-0.59879 0.47191-1.1333 0.95229-1.5154 0.48038-0.38205 1.0765-0.5888 1.6901-0.58615 0.61255 0.00127 1.2074 0.20571 1.6915 0.58134s0.8301 0.90127 0.9839 1.4947l6.5948 18.142c0.0348 0.0968 0.0575 0.1976 0.0674 0.3-0.0051 0.2426-0.1026 0.4741-0.2725 0.6472s-0.3995 0.2748-0.6417 0.2843zm-12.843-9.2715h8.7966l-3.4788-9.741c-0.0399-0.21161-0.1507-0.40324-0.31427-0.54318-0.16355-0.13994-0.36994-0.21979-0.58501-0.22632-0.39968 0-0.69945 0.26802-0.89929 0.80402l-3.5192 9.7064z" fill="#27A365"/>
<path d="m24.516 3.213h-6.5588c-0.1185 0.00697-0.2371-0.01035-0.3486-0.05092-0.1115-0.04058-0.2136-0.10354-0.2999-0.18501s-0.1551-0.17975-0.2021-0.28878c-0.0471-0.10903-0.0713-0.22654-0.0713-0.34529s0.0242-0.23624 0.0713-0.34527c0.047-0.10903 0.1158-0.20731 0.2021-0.28878s0.1884-0.14443 0.2999-0.18501c0.1115-0.04057 0.2301-0.05789 0.3486-0.05092h14.75c0.2306 0 0.4517 0.09166 0.6147 0.25481 0.163 0.16316 0.2546 0.38443 0.2546 0.61517s-0.0916 0.45203-0.2546 0.61519c-0.163 0.16315-0.3841 0.25481-0.6147 0.25481h-6.4509v18.611c0 0.1142-0.0225 0.2273-0.0662 0.3329-0.0436 0.1056-0.1077 0.2014-0.1884 0.2822s-0.1765 0.1449-0.282 0.1886c-0.1055 0.0438-0.2185 0.0662-0.3327 0.0662s-0.2272-0.0224-0.3327-0.0662c-0.1054-0.0437-0.2013-0.1078-0.282-0.1886s-0.1447-0.1766-0.1884-0.2822-0.0662-0.2187-0.0662-0.3329l-0.0015-18.611z" fill="#27A365"/>
<path d="m51.606 15.498c0.0043 0.9746-0.1892 1.9399-0.5687 2.8374s-0.9371 1.7086-1.639 2.3841c-0.7538 0.7468-1.6543 1.3288-2.6445 1.7091s-2.0485 0.5508-3.108 0.5004c-1.1108 0.0231-2.2151-0.1751-3.2487-0.583s-1.9759-1.0174-2.772-1.793c-1.6273-1.5966-2.5947-3.7477-2.7099-6.0255-0.1337-1.6372-0.1337-3.2827 0-4.92 0.1159-2.258 1.0845-4.3876 2.7099-5.958 0.7916-0.78421 1.7322-1.4016 2.7664-1.8156 1.0341-0.41404 2.1407-0.61633 3.2543-0.59489 1.6055-0.04401 3.1868 0.39926 4.5359 1.2715 1.349 0.87225 2.4028 2.1327 3.0227 3.6155 0.0515 0.13704 0.0694 0.28443 0.0523 0.42984s-0.0687 0.2846-0.1506 0.40592c-0.0819 0.12133-0.1917 0.22126-0.3201 0.29141-0.1284 0.07016-0.2717 0.10849-0.418 0.11181-0.1828 0.01215-0.3644-0.03718-0.5159-0.14019s-0.2643-0.25378-0.3204-0.4283c-0.5011-1.1399-1.3268-2.1067-2.3739-2.7796-1.0472-0.67284-2.2692-1.0219-3.5135-1.0034-0.8656-0.01305-1.7252 0.14598-2.5289 0.46783-0.8038 0.32186-1.5357 0.80015-2.1534 1.4072-1.3035 1.225-2.0927 2.9002-2.2077 4.686-0.1672 1.6693-0.1672 3.3512 0 5.0205 0.1172 1.7877 0.8913 3.4686 2.1733 4.719 0.6242 0.6074 1.3619 1.0857 2.171 1.4074 0.8091 0.3218 1.6737 0.4807 2.5442 0.4676 1.6176 0.0707 3.2035-0.464 4.4485-1.5 0.5679-0.4851 1.0192-1.0921 1.3202-1.7759 0.3011-0.6838 0.4441-1.4268 0.4184-2.1736v-2.3505h-5.0165c-0.2306 0-0.4517-0.0916-0.6147-0.2548-0.163-0.1631-0.2546-0.3844-0.2546-0.6152 0-0.2307 0.0916-0.452 0.2546-0.6152 0.163-0.1631 0.3841-0.2548 0.6147-0.2548h5.117c0.2191-0.021 0.4402 0.0055 0.6481 0.0778 0.2079 0.0724 0.3978 0.1888 0.5566 0.3413 0.1588 0.1526 0.2828 0.3376 0.3636 0.5425 0.0808 0.205 0.1164 0.4249 0.1043 0.6449l3e-3 2.2425z" fill="#27A365"/>
<path d="m57.16 21.891c0.0088 0.1357-0.0108 0.2717-0.0576 0.3993s-0.1197 0.2441-0.2141 0.3418c-0.0945 0.0978-0.2083 0.1747-0.3342 0.2258-0.1258 0.0511-0.261 0.0753-0.3968 0.0711-0.1342-0.0014-0.2668-0.0294-0.3901-0.0825-0.1233-0.053-0.2349-0.1301-0.3282-0.2267-0.0932-0.0966-0.1664-0.2107-0.2153-0.3358-0.0488-0.1251-0.0723-0.2587-0.0691-0.393v-1.6395c-0.1004-1.3395 2.0743-1.3395 2.0069 0l-0.0015 1.6395z" fill="#27A365"/>
<path d="m58.064 2.4435c-0.0437-0.13404-0.0541-0.27667-0.0305-0.41565 0.0237-0.13897 0.0807-0.27012 0.1663-0.38214 0.0855-0.11201 0.197-0.20155 0.3247-0.2609 0.1278-0.05935 0.2681-0.08672 0.4088-0.07979 0.1014-0.01051 0.2038-5e-4 0.3013 0.02944 0.0974 0.02994 0.1879 0.0792 0.2659 0.14483 0.078 0.06564 0.1421 0.14632 0.1883 0.23724s0.0737 0.19022 0.0808 0.29198l4.2476 19.08c0 0.234 0.2339 0.168 0.2998 0l4.8157-18.208c0.0666-0.43352 0.2916-0.82688 0.6313-1.104s0.7701-0.41821 1.2078-0.39604c0.4362-0.01589 0.8633 0.12754 1.2017 0.40352 0.3383 0.27599 0.5648 0.66569 0.6373 1.0965l4.7153 18.243c0.0674 0.168 0.2998 0.234 0.2998 0l4.315-19.05c0.0184-0.21548 0.1189-0.41562 0.2808-0.5589 0.1618-0.14328 0.3726-0.2187 0.5886-0.2106 0.1419-0.01478 0.2853 0.00785 0.4158 0.06565 0.1305 0.05779 0.2436 0.14874 0.3282 0.26383 0.0845 0.11508 0.1375 0.25031 0.1537 0.39223s-5e-3 0.2856-0.0614 0.4168l-4.3466 19.012c-0.0934 0.4095-0.3229 0.7751-0.6511 1.0369-0.3281 0.2619-0.7353 0.4045-1.155 0.4045-0.4196 0-0.8269-0.1426-1.155-0.4045-0.3281-0.2618-0.5576-0.6274-0.651-1.0369l-4.8157-18.243c0-0.03978-0.0158-0.07794-0.0439-0.10607s-0.0662-0.04394-0.106-0.04394c-0.0397 0-0.0779 0.01581-0.106 0.04394s-0.0439 0.06629-0.0439 0.10607l-4.8831 18.243c-0.0934 0.4095-0.323 0.7751-0.6511 1.0369-0.3281 0.2619-0.7353 0.4045-1.155 0.4045s-0.8269-0.1426-1.155-0.4045c-0.3281-0.2618-0.5577-0.6274-0.6511-1.0369l-4.2131-19.011z" fill="#5C5D5D"/>
<path d="m125.89 22.761c-0.133-0.0058-0.264-0.0384-0.385-0.0959-0.121-0.0574-0.229-0.1386-0.318-0.2386l-5.953-7.464c-0.172-0.2993-0.421-0.547-0.721-0.7177-0.3-0.1706-0.64-0.2579-0.985-0.2528h-4.214v7.866c-0.01 0.2306-0.103 0.4498-0.264 0.6157-0.16 0.166-0.376 0.2672-0.606 0.2843-0.232-0.0118-0.45-0.1113-0.612-0.2784-0.161-0.167-0.253-0.3893-0.257-0.6216v-18.645c-0.01-0.2313 0.028-0.46213 0.112-0.67786s0.212-0.41164 0.376-0.57527c0.163-0.16363 0.359-0.29142 0.575-0.37523 0.215-0.08381 0.446-0.12183 0.677-0.11162h6.121c1.751-0.08639 3.467 0.51416 4.783 1.674 0.624 0.59626 1.111 1.3206 1.429 2.1233 0.317 0.80269 0.457 1.6647 0.41 2.5267 0 3.5145-2.074 5.49-5.546 5.958l6.087 7.5645c0.12 0.1642 0.18 0.3652 0.168 0.5685 4e-3 0.1161-0.016 0.2318-0.059 0.3398-0.042 0.108-0.107 0.2061-0.189 0.288-0.083 0.082-0.181 0.146-0.289 0.1882s-0.224 0.0616-0.34 0.057zm-12.542-10.544h5.619c3.579 0 5.351-1.473 5.351-4.485 0-2.778-1.706-4.5195-4.916-4.5195h-6.054v9.0045z" fill="#5C5D5D"/>
<path d="m129.67 2.2425c0-0.23074 0.092-0.45201 0.255-0.61517 0.163-0.16315 0.384-0.25481 0.614-0.25481 0.231 0 0.452 0.09166 0.615 0.25481 0.163 0.16316 0.255 0.38443 0.255 0.61517v18.578h10.569c0.235 0.0112 0.457 0.1097 0.624 0.2761 0.166 0.1664 0.264 0.3888 0.276 0.6238-0.012 0.2321-0.111 0.4511-0.278 0.6126-0.167 0.1616-0.389 0.2536-0.622 0.2574h-10.535c-0.235 0.01-0.47-0.029-0.69-0.1147-0.22-0.0856-0.419-0.216-0.586-0.3828-0.166-0.1668-0.297-0.3665-0.382-0.5863-0.086-0.2198-0.125-0.455-0.115-0.6907v-18.573z" fill="#5C5D5D"/>
<path d="m148.04 22.626c-0.225 0.0126-0.451-0.0232-0.662-0.105s-0.402-0.2077-0.56-0.3693c-0.159-0.1615-0.281-0.3551-0.358-0.5677-0.078-0.2126-0.109-0.4393-0.092-0.665v-17.773c-0.017-0.22568 0.014-0.4524 0.092-0.66499 0.077-0.21259 0.199-0.40615 0.358-0.56774 0.158-0.16159 0.349-0.28749 0.56-0.36928s0.437-0.11758 0.662-0.10499h5.222c1.227-0.08148 2.456 0.09698 3.609 0.52373s2.202 1.0922 3.08 1.9528c1.649 1.7605 2.569 4.0809 2.575 6.4935 0.067 1.1035 0.067 2.21 0 3.3135-0.036 2.4057-0.968 4.7113-2.612 6.4665-0.882 0.8438-1.928 1.4963-3.073 1.9168-1.146 0.4204-2.366 0.5998-3.583 0.5267h-5.218v-6e-3zm12.74-12.285c-0.267-4.485-2.71-7.1295-7.558-7.1295h-5.084v17.607h5.084c4.85 0 7.324-2.6775 7.558-7.1295 0.068-1.1144 0.069-2.2319 3e-3 -3.3465l-3e-3 -0.0015z" fill="#5C5D5D"/>
<path d="m90.301 22.2v-9.3795l5.6116 5.6295h0.0329v5.55c-2.0053-0.1019-3.95-0.722-5.6445-1.8zm7.3142-3.7155 5.6771-5.691v9.372c-1.692 1.11-3.6552 1.7351-5.6771 1.8075v-5.4885zm5.6771-0.201v-5.4975h5.479c-0.13 1.948-0.738 3.8339-1.77 5.49l-3.709 0.0075zm-16.699 0c-1.034-1.6583-1.6421-3.5469-1.7701-5.4975h5.4782v5.49l-3.7081 0.0075zm6.7147-6.267c0.0012-0.6871 0.2059-1.3585 0.5882-1.9292 0.3823-0.5708 0.9251-1.0153 1.5598-1.2775 0.6346-0.26213 1.3327-0.33011 2.0059-0.19533 0.6733 0.13478 1.2915 0.46627 1.7766 0.95256 0.4851 0.48633 0.8152 1.1056 0.9492 1.7796 0.133 0.674 0.064 1.3725-0.1991 2.0072-0.263 0.6347-0.7081 1.1772-1.2791 1.5588-0.5709 0.3816-1.2421 0.5853-1.9287 0.5853-0.4565-4e-4 -0.9084-0.0908-1.3299-0.2659-0.4216-0.1752-0.8045-0.4318-1.127-0.7551-0.3224-0.3232-0.5781-0.7069-0.7524-1.1291-0.1744-0.4222-0.2639-0.8746-0.2635-1.3314zm9.8537-0.87-5.5461-5.55v-5.5965c2.0117 0.12718 3.9561 0.77311 5.6441 1.875v3.765l0.017 0.0165h3.696c1.026 1.6458 1.633 3.5186 1.767 5.454l0.032 0.036h-5.61zm-18.371 0 0.0404-0.0465c0.1507-1.9288 0.7563-3.7943 1.7671-5.4435h3.6871l0.0165-0.0165v-3.765c1.6884-1.1019 3.6329-1.7478 5.6445-1.875v5.5905l-5.5456 5.55-5.61 6e-3z" fill="url(#a)"/>
</g>
<defs>
<linearGradient id="a" x1="84.79" x2="96.791" y1="10.464" y2="23.991" gradientUnits="userSpaceOnUse">
<stop stop-color="#00A854" offset="0"/>
<stop stop-color="#004D25" offset="1"/>
</linearGradient>
<clipPath id="b">
<rect width="162.57" height="24" fill="#fff"/>
</clipPath>
</defs>
</svg>
